G75*
%MOIN*%
%OFA0B0*%
%FSLAX24Y24*%
%IPPOS*%
%LPD*%
%AMOC8*
5,1,8,0,0,1.08239X$1,22.5*
%
%ADD10C,0.0000*%
%ADD11C,0.0060*%
%ADD12C,0.0070*%
%ADD13C,0.0050*%
%ADD14C,0.0100*%
%ADD15C,0.0030*%
D10*
X000150Y000200D02*
X010550Y000200D01*
X010550Y007000D01*
X000150Y007000D01*
X000150Y000200D01*
D11*
X001300Y001400D02*
X001050Y001650D01*
X001050Y002150D01*
X001300Y002400D01*
X001050Y002650D01*
X001050Y003150D01*
X001300Y003400D01*
X001050Y003650D01*
X001050Y004150D01*
X001300Y004400D01*
X001050Y004650D01*
X001050Y005150D01*
X001300Y005400D01*
X001800Y005400D01*
X002050Y005150D01*
X002050Y004650D01*
X001800Y004400D01*
X002050Y004150D01*
X002050Y003650D01*
X001800Y003400D01*
X002050Y003150D01*
X002050Y002650D01*
X001800Y002400D01*
X002050Y002150D01*
X002050Y001650D01*
X001800Y001400D01*
X001300Y001400D01*
X008750Y001150D02*
X008750Y000650D01*
X009000Y000400D01*
X009500Y000400D01*
X009750Y000650D01*
X009750Y001150D01*
X009500Y001400D01*
X009750Y001650D01*
X009750Y002150D01*
X009500Y002400D01*
X009750Y002650D01*
X009750Y003150D01*
X009500Y003400D01*
X009750Y003650D01*
X009750Y004150D01*
X009500Y004400D01*
X009750Y004650D01*
X009750Y005150D01*
X009500Y005400D01*
X009750Y005650D01*
X009750Y006150D01*
X009500Y006400D01*
X009000Y006400D01*
X008750Y006150D01*
X008750Y005650D01*
X009000Y005400D01*
X008750Y005150D01*
X008750Y004650D01*
X009000Y004400D01*
X008750Y004150D01*
X008750Y003650D01*
X009000Y003400D01*
X008750Y003150D01*
X008750Y002650D01*
X009000Y002400D01*
X008750Y002150D01*
X008750Y001650D01*
X009000Y001400D01*
X008750Y001150D01*
X010040Y000975D02*
X010040Y000888D01*
X010084Y000845D01*
X010040Y000724D02*
X010301Y000724D01*
X010301Y000845D02*
X010127Y001018D01*
X010084Y001018D01*
X010040Y000975D01*
X010171Y001139D02*
X010171Y001313D01*
X010257Y001226D02*
X010084Y001226D01*
X010301Y001018D02*
X010301Y000845D01*
X010127Y000637D02*
X010040Y000724D01*
X010127Y000637D02*
X010040Y000550D01*
X010301Y000550D01*
X010233Y001710D02*
X010060Y001710D01*
X010233Y001710D02*
X010320Y001797D01*
X010233Y001884D01*
X010060Y001884D01*
X010190Y002005D02*
X010190Y002178D01*
X010103Y002092D02*
X010277Y002092D01*
X010301Y002550D02*
X010040Y002550D01*
X010127Y002637D01*
X010040Y002724D01*
X010301Y002724D01*
X010301Y002845D02*
X010127Y003018D01*
X010084Y003018D01*
X010040Y002975D01*
X010040Y002888D01*
X010084Y002845D01*
X010301Y002845D02*
X010301Y003018D01*
X010171Y003139D02*
X010171Y003313D01*
X010285Y003521D02*
X010025Y003521D01*
X010111Y003608D01*
X010025Y003695D01*
X010285Y003695D01*
X010285Y003816D02*
X010285Y003989D01*
X010285Y003903D02*
X010025Y003903D01*
X010111Y003816D01*
X010155Y004111D02*
X010155Y004284D01*
X010237Y004566D02*
X010064Y004566D01*
X010020Y004609D01*
X010020Y004696D01*
X010064Y004739D01*
X010151Y004739D02*
X010151Y004653D01*
X010237Y004566D02*
X010281Y004609D01*
X010281Y004696D01*
X010237Y004739D01*
X010151Y004739D01*
X010281Y004860D02*
X010020Y004860D01*
X010281Y005034D01*
X010020Y005034D01*
X010020Y005155D02*
X010020Y005285D01*
X010064Y005329D01*
X010237Y005329D01*
X010281Y005285D01*
X010281Y005155D01*
X010020Y005155D01*
X010025Y005621D02*
X010111Y005708D01*
X010025Y005795D01*
X010285Y005795D01*
X010285Y005916D02*
X010285Y006089D01*
X010285Y006003D02*
X010025Y006003D01*
X010111Y005916D01*
X010155Y006211D02*
X010155Y006384D01*
X010068Y006297D02*
X010242Y006297D01*
X010285Y005621D02*
X010025Y005621D01*
D12*
X010035Y006551D02*
X009925Y006551D01*
X009980Y006551D02*
X009980Y006881D01*
X009925Y006881D01*
X009777Y006716D02*
X009777Y006551D01*
X009612Y006551D01*
X009557Y006606D01*
X009612Y006661D01*
X009777Y006661D01*
X009777Y006716D02*
X009722Y006771D01*
X009612Y006771D01*
X009409Y006771D02*
X009409Y006551D01*
X009243Y006551D01*
X009188Y006606D01*
X009188Y006771D01*
X009040Y006826D02*
X008985Y006881D01*
X008820Y006881D01*
X008820Y006551D01*
X008985Y006551D01*
X009040Y006606D01*
X009040Y006826D01*
X008304Y006881D02*
X008304Y006551D01*
X008083Y006551D02*
X008083Y006881D01*
X008194Y006771D01*
X008304Y006881D01*
X007935Y006881D02*
X007935Y006551D01*
X007825Y006661D01*
X007715Y006551D01*
X007715Y006881D01*
X007567Y006826D02*
X007567Y006716D01*
X007512Y006661D01*
X007347Y006661D01*
X007347Y006551D02*
X007347Y006881D01*
X007512Y006881D01*
X007567Y006826D01*
X007199Y006716D02*
X007199Y006551D01*
X007199Y006716D02*
X007144Y006771D01*
X006979Y006771D01*
X006979Y006551D01*
X006830Y006661D02*
X006830Y006716D01*
X006775Y006771D01*
X006665Y006771D01*
X006610Y006716D01*
X006610Y006606D01*
X006665Y006551D01*
X006775Y006551D01*
X006830Y006661D02*
X006610Y006661D01*
X006462Y006716D02*
X006462Y006606D01*
X006407Y006551D01*
X006242Y006551D01*
X006242Y006441D02*
X006242Y006771D01*
X006407Y006771D01*
X006462Y006716D01*
X006094Y006606D02*
X006039Y006551D01*
X005929Y006551D01*
X005874Y006606D01*
X005874Y006826D01*
X005929Y006881D01*
X006039Y006881D01*
X006094Y006826D01*
X006094Y006606D01*
X006039Y006281D02*
X005874Y006281D01*
X005874Y005951D01*
X005874Y006061D02*
X006039Y006061D01*
X006094Y006116D01*
X006094Y006226D01*
X006039Y006281D01*
X006242Y006116D02*
X006297Y006171D01*
X006407Y006171D01*
X006462Y006116D01*
X006462Y006061D01*
X006242Y006061D01*
X006242Y006006D02*
X006242Y006116D01*
X006242Y006006D02*
X006297Y005951D01*
X006407Y005951D01*
X006610Y006171D02*
X006720Y005951D01*
X006830Y006171D01*
X006979Y006116D02*
X007144Y006116D01*
X007199Y006061D01*
X007199Y006006D01*
X007144Y005951D01*
X006979Y005951D01*
X006979Y006281D01*
X007144Y006281D01*
X007199Y006226D01*
X007199Y006171D01*
X007144Y006116D01*
X006094Y005951D02*
X005984Y006061D01*
D13*
X008125Y005975D02*
X008200Y005825D01*
X008350Y005675D01*
X008350Y005900D01*
X008425Y005975D01*
X008500Y005975D01*
X008575Y005900D01*
X008575Y005750D01*
X008500Y005675D01*
X008350Y005675D01*
X006047Y004394D02*
X006047Y004256D01*
X006047Y004394D02*
X004000Y004394D01*
X004000Y004256D01*
X004445Y004051D02*
X004447Y004083D01*
X004453Y004114D01*
X004462Y004145D01*
X004475Y004174D01*
X004492Y004201D01*
X004511Y004226D01*
X004534Y004249D01*
X004559Y004268D01*
X004586Y004285D01*
X004615Y004298D01*
X004646Y004307D01*
X004677Y004313D01*
X004709Y004315D01*
X004741Y004313D01*
X004772Y004307D01*
X004803Y004298D01*
X004832Y004285D01*
X004859Y004268D01*
X004884Y004249D01*
X004907Y004226D01*
X004926Y004201D01*
X004943Y004174D01*
X004956Y004145D01*
X004965Y004114D01*
X004971Y004083D01*
X004973Y004051D01*
X004971Y004019D01*
X004965Y003988D01*
X004956Y003957D01*
X004943Y003928D01*
X004926Y003901D01*
X004907Y003876D01*
X004884Y003853D01*
X004859Y003834D01*
X004832Y003817D01*
X004803Y003804D01*
X004772Y003795D01*
X004741Y003789D01*
X004709Y003787D01*
X004677Y003789D01*
X004646Y003795D01*
X004615Y003804D01*
X004586Y003817D01*
X004559Y003834D01*
X004534Y003853D01*
X004511Y003876D01*
X004492Y003901D01*
X004475Y003928D01*
X004462Y003957D01*
X004453Y003988D01*
X004447Y004019D01*
X004445Y004051D01*
X001775Y005415D02*
X001775Y005715D01*
X001775Y005565D02*
X001325Y005565D01*
X001475Y005415D01*
X000675Y005394D02*
X000675Y005259D01*
X000630Y005214D01*
X000540Y005214D01*
X000495Y005259D01*
X000495Y005394D01*
X000405Y005394D02*
X000675Y005394D01*
X000675Y005100D02*
X000540Y005100D01*
X000495Y005055D01*
X000495Y004920D01*
X000675Y004920D01*
X000630Y004805D02*
X000540Y004805D01*
X000540Y004715D01*
X000450Y004625D02*
X000630Y004625D01*
X000675Y004670D01*
X000675Y004760D01*
X000630Y004805D01*
X000450Y004805D02*
X000405Y004760D01*
X000405Y004670D01*
X000450Y004625D01*
X000495Y004294D02*
X000675Y004204D01*
X000495Y004114D01*
X000540Y004000D02*
X000495Y003955D01*
X000495Y003910D01*
X000540Y003820D01*
X000405Y003820D01*
X000405Y004000D01*
X000540Y004000D02*
X000630Y004000D01*
X000675Y003955D01*
X000675Y003865D01*
X000630Y003820D01*
X000540Y003705D02*
X000540Y003525D01*
X000450Y003615D02*
X000630Y003615D01*
X000725Y003294D02*
X000725Y003114D01*
X000725Y003204D02*
X000455Y003204D01*
X000545Y003114D01*
X000545Y003000D02*
X000680Y003000D01*
X000725Y002955D01*
X000680Y002910D01*
X000725Y002865D01*
X000680Y002820D01*
X000545Y002820D01*
X000500Y002705D02*
X000590Y002705D01*
X000635Y002660D01*
X000635Y002525D01*
X000725Y002525D02*
X000455Y002525D01*
X000455Y002660D01*
X000500Y002705D01*
X000500Y002194D02*
X000455Y002149D01*
X000455Y002059D01*
X000500Y002014D01*
X000545Y001900D02*
X000680Y001900D01*
X000725Y001855D01*
X000680Y001810D01*
X000725Y001765D01*
X000680Y001720D01*
X000545Y001720D01*
X000500Y001605D02*
X000590Y001605D01*
X000635Y001560D01*
X000635Y001425D01*
X000725Y001425D02*
X000455Y001425D01*
X000455Y001560D01*
X000500Y001605D01*
X000725Y002014D02*
X000545Y002194D01*
X000500Y002194D01*
X000725Y002194D02*
X000725Y002014D01*
X001550Y001165D02*
X001550Y000865D01*
X001325Y001090D01*
X001775Y001090D01*
X004000Y000693D02*
X004000Y000638D01*
X006047Y000638D01*
X006047Y000693D01*
X009925Y000825D02*
X010375Y000825D01*
X010375Y000675D02*
X010375Y000975D01*
X010075Y000675D02*
X009925Y000825D01*
D14*
X001400Y005750D02*
X000500Y005750D01*
X000500Y006550D01*
X001200Y006550D01*
X001200Y005950D01*
X000700Y005950D01*
X000700Y006350D01*
X001000Y006350D01*
X001000Y006150D01*
X000900Y006150D01*
X001400Y005750D02*
X001400Y006750D01*
X000500Y006750D01*
D15*
X003565Y005307D02*
X003565Y005113D01*
X003613Y005065D01*
X003710Y005065D01*
X003758Y005113D01*
X003860Y005065D02*
X004053Y005258D01*
X004053Y005307D01*
X004005Y005355D01*
X003908Y005355D01*
X003860Y005307D01*
X003758Y005307D02*
X003710Y005355D01*
X003613Y005355D01*
X003565Y005307D01*
X003860Y005065D02*
X004053Y005065D01*
X004689Y005566D02*
X004689Y005856D01*
X004834Y005856D01*
X004883Y005808D01*
X004883Y005711D01*
X004834Y005663D01*
X004689Y005663D01*
X004786Y005663D02*
X004883Y005566D01*
X005080Y005566D02*
X005080Y005856D01*
X004984Y005856D02*
X005177Y005856D01*
X005278Y005760D02*
X005375Y005856D01*
X005375Y005566D01*
X005278Y005566D02*
X005472Y005566D01*
X005865Y004855D02*
X006010Y004855D01*
X006058Y004807D01*
X006058Y004710D01*
X006010Y004662D01*
X005865Y004662D01*
X005962Y004662D02*
X006058Y004565D01*
X006160Y004565D02*
X006160Y004613D01*
X006353Y004807D01*
X006353Y004855D01*
X006160Y004855D01*
X005865Y004855D02*
X005865Y004565D01*
X006915Y004627D02*
X006977Y004565D01*
X007100Y004565D01*
X007162Y004627D01*
X007283Y004750D02*
X007530Y004750D01*
X007468Y004565D02*
X007468Y004935D01*
X007283Y004750D01*
X007162Y004874D02*
X007100Y004935D01*
X006977Y004935D01*
X006915Y004874D01*
X006915Y004627D01*
X007040Y002185D02*
X006978Y002124D01*
X006978Y001877D01*
X007040Y001815D01*
X007164Y001815D01*
X007225Y001877D01*
X007347Y001815D02*
X007594Y001815D01*
X007470Y001815D02*
X007470Y002185D01*
X007347Y002062D01*
X007225Y002124D02*
X007164Y002185D01*
X007040Y002185D01*
M02*
