G75*
%MOIN*%
%OFA0B0*%
%FSLAX24Y24*%
%IPPOS*%
%LPD*%
%AMOC8*
5,1,8,0,0,1.08239X$1,22.5*
%
%ADD10C,0.0000*%
%ADD11R,0.0669X0.0157*%
%ADD12R,0.1181X0.1181*%
%ADD13R,0.0433X0.0394*%
%ADD14R,0.0512X0.0591*%
%ADD15R,0.0354X0.0276*%
%ADD16R,0.0276X0.0354*%
%ADD17R,0.0315X0.0315*%
%ADD18R,0.0394X0.0433*%
%ADD19R,0.0472X0.0217*%
D10*
X000150Y000200D02*
X010550Y000200D01*
X010550Y007000D01*
X000150Y007000D01*
X000150Y000200D01*
D11*
X003799Y002504D03*
X003799Y002760D03*
X003799Y003016D03*
X003799Y003272D03*
X003799Y003528D03*
X003799Y003784D03*
X003799Y004040D03*
X003799Y004296D03*
X006201Y004296D03*
X006201Y004040D03*
X006201Y003784D03*
X006201Y003528D03*
X006201Y003272D03*
X006201Y003016D03*
X006201Y002760D03*
X006201Y002504D03*
D12*
X005000Y003400D03*
D13*
X005615Y001900D03*
X006285Y001900D03*
D14*
X007270Y002680D03*
X008019Y002680D03*
X008028Y004043D03*
X007280Y004043D03*
D15*
X003050Y002606D03*
X003050Y002094D03*
X002550Y004094D03*
X002550Y004606D03*
D16*
X003694Y001250D03*
X004206Y001250D03*
X004694Y001050D03*
X005206Y001050D03*
D17*
X003145Y001200D03*
X002555Y001200D03*
X001745Y001200D03*
X001155Y001200D03*
D18*
X003200Y004865D03*
X003200Y005535D03*
X005550Y005635D03*
X005550Y004965D03*
D19*
X004912Y004826D03*
X004912Y005200D03*
X004912Y005574D03*
X003888Y005574D03*
X003888Y004826D03*
M02*
