G75*
%MOIN*%
%OFA0B0*%
%FSLAX24Y24*%
%IPPOS*%
%LPD*%
%AMOC8*
5,1,8,0,0,1.08239X$1,22.5*
%
%ADD10C,0.0000*%
%ADD11R,0.0630X0.0236*%
%ADD12C,0.0600*%
%ADD13R,0.0630X0.0709*%
%ADD14R,0.0433X0.0394*%
%ADD15R,0.0276X0.0354*%
%ADD16R,0.0600X0.0600*%
%ADD17C,0.0600*%
%ADD18C,0.0280*%
%ADD19C,0.0120*%
%ADD20C,0.0360*%
%ADD21C,0.0160*%
%ADD22C,0.0100*%
%ADD23C,0.0960*%
D10*
X000150Y000200D02*
X010550Y000200D01*
X010550Y007000D01*
X000150Y007000D01*
X000150Y000200D01*
D11*
X003937Y001000D03*
X003937Y001500D03*
X003937Y002000D03*
X003937Y002500D03*
X003937Y003000D03*
X003937Y003500D03*
X003937Y004000D03*
X006063Y004000D03*
X006063Y003500D03*
X006063Y003000D03*
X006063Y002500D03*
X006063Y002000D03*
X006063Y001500D03*
X006063Y001000D03*
D12*
X008950Y000900D02*
X009550Y000900D01*
X009550Y001900D02*
X008950Y001900D01*
X008950Y002900D02*
X009550Y002900D01*
X009550Y003900D02*
X008950Y003900D01*
X008950Y004900D02*
X009550Y004900D01*
X009550Y005900D02*
X008950Y005900D01*
X001850Y004900D02*
X001250Y004900D01*
X001250Y003900D02*
X001850Y003900D01*
X001850Y002900D02*
X001250Y002900D01*
X001250Y001900D02*
X001850Y001900D01*
D13*
X007049Y002700D03*
X008151Y002700D03*
X008151Y004000D03*
X007049Y004000D03*
D14*
X004485Y004750D03*
X003815Y004750D03*
D15*
X004794Y005300D03*
X005306Y005300D03*
X005094Y004750D03*
X005606Y004750D03*
D16*
X002300Y006300D03*
D17*
X003300Y006300D03*
X004300Y006300D03*
X005300Y006300D03*
D18*
X005950Y005700D03*
X005992Y005291D03*
X005992Y004991D03*
X006656Y005000D03*
X006656Y004700D03*
X006656Y005300D03*
X007492Y006091D03*
X007850Y004600D03*
X008150Y004600D03*
X008450Y004600D03*
X005250Y004150D03*
X004700Y004150D03*
X004400Y005150D03*
X004400Y005550D03*
X002750Y005000D03*
X002950Y004000D03*
X002750Y003650D03*
X002450Y003400D03*
X003200Y003050D03*
X002350Y002350D03*
X002150Y001200D03*
X000700Y001200D03*
X004700Y002650D03*
X005250Y002650D03*
X004750Y002150D03*
X005100Y002000D03*
X005350Y001450D03*
X004750Y001500D03*
X005550Y000700D03*
X006550Y000700D03*
X006850Y001200D03*
X006850Y001500D03*
X006850Y001800D03*
X007850Y002100D03*
X008150Y002100D03*
X008450Y002100D03*
X007500Y000700D03*
X000850Y006250D03*
D19*
X006550Y005350D02*
X006550Y004650D01*
X006800Y004400D01*
X006800Y000950D01*
X007372Y000950D01*
X007444Y000980D01*
X007556Y000980D01*
X007628Y000950D01*
X008450Y000950D01*
X008526Y001026D01*
X008577Y001149D01*
X008701Y001273D01*
X008862Y001340D01*
X009638Y001340D01*
X009734Y001300D01*
X009800Y001300D01*
X009800Y002150D01*
X008900Y002150D01*
X008550Y001700D01*
X007700Y001700D01*
X007500Y001900D01*
X007500Y005300D01*
X007450Y005350D01*
X006550Y005350D01*
X006550Y005296D02*
X007500Y005296D01*
X007500Y005177D02*
X006550Y005177D01*
X006550Y005059D02*
X007500Y005059D01*
X007500Y004940D02*
X006550Y004940D01*
X006550Y004822D02*
X007500Y004822D01*
X007500Y004703D02*
X006550Y004703D01*
X006615Y004585D02*
X007500Y004585D01*
X007500Y004466D02*
X006734Y004466D01*
X006800Y004348D02*
X007500Y004348D01*
X007500Y004229D02*
X006800Y004229D01*
X006800Y004111D02*
X007500Y004111D01*
X007500Y003992D02*
X006800Y003992D01*
X006800Y003874D02*
X007500Y003874D01*
X007500Y003755D02*
X006800Y003755D01*
X006800Y003637D02*
X007500Y003637D01*
X007500Y003518D02*
X006800Y003518D01*
X006800Y003400D02*
X007500Y003400D01*
X007500Y003281D02*
X006800Y003281D01*
X006800Y003163D02*
X007500Y003163D01*
X007500Y003044D02*
X006800Y003044D01*
X006800Y002926D02*
X007500Y002926D01*
X007500Y002807D02*
X006800Y002807D01*
X006800Y002689D02*
X007500Y002689D01*
X007500Y002570D02*
X006800Y002570D01*
X006800Y002452D02*
X007500Y002452D01*
X007500Y002333D02*
X006800Y002333D01*
X006800Y002215D02*
X007500Y002215D01*
X007500Y002096D02*
X006800Y002096D01*
X006800Y001978D02*
X007500Y001978D01*
X007541Y001859D02*
X006800Y001859D01*
X006800Y001741D02*
X007659Y001741D01*
X007750Y001950D02*
X007750Y005400D01*
X009950Y005400D01*
X009950Y004300D01*
X009734Y004300D01*
X009638Y004340D01*
X008862Y004340D01*
X008766Y004300D01*
X008650Y004300D01*
X008648Y004220D01*
X008577Y004149D01*
X008510Y003988D01*
X008510Y003812D01*
X008577Y003651D01*
X008633Y003595D01*
X008623Y003195D01*
X008577Y003149D01*
X008510Y002988D01*
X008510Y002812D01*
X008577Y002651D01*
X008609Y002619D01*
X008600Y002250D01*
X008300Y001950D01*
X007750Y001950D01*
X007750Y001978D02*
X008328Y001978D01*
X008446Y002096D02*
X007750Y002096D01*
X007750Y002215D02*
X008565Y002215D01*
X008602Y002333D02*
X007750Y002333D01*
X007750Y002452D02*
X008605Y002452D01*
X008608Y002570D02*
X007750Y002570D01*
X007750Y002689D02*
X008561Y002689D01*
X008512Y002807D02*
X007750Y002807D01*
X007750Y002926D02*
X008510Y002926D01*
X008533Y003044D02*
X007750Y003044D01*
X007750Y003163D02*
X008590Y003163D01*
X008625Y003281D02*
X007750Y003281D01*
X007750Y003400D02*
X008628Y003400D01*
X008631Y003518D02*
X007750Y003518D01*
X007750Y003637D02*
X008591Y003637D01*
X008534Y003755D02*
X007750Y003755D01*
X007750Y003874D02*
X008510Y003874D01*
X008512Y003992D02*
X007750Y003992D01*
X007750Y004111D02*
X008561Y004111D01*
X008648Y004229D02*
X007750Y004229D01*
X007750Y004348D02*
X009950Y004348D01*
X009950Y004466D02*
X007750Y004466D01*
X007750Y004585D02*
X009950Y004585D01*
X009950Y004703D02*
X007750Y004703D01*
X007750Y004822D02*
X009950Y004822D01*
X009950Y004940D02*
X007750Y004940D01*
X007750Y005059D02*
X009950Y005059D01*
X009950Y005177D02*
X007750Y005177D01*
X007750Y005296D02*
X009950Y005296D01*
X009800Y002096D02*
X008858Y002096D01*
X008766Y001978D02*
X009800Y001978D01*
X009800Y001859D02*
X008674Y001859D01*
X008582Y001741D02*
X009800Y001741D01*
X009800Y001622D02*
X006800Y001622D01*
X006800Y001504D02*
X009800Y001504D01*
X009800Y001385D02*
X006800Y001385D01*
X006800Y001267D02*
X008694Y001267D01*
X008576Y001148D02*
X006800Y001148D01*
X006800Y001030D02*
X008527Y001030D01*
D20*
X008250Y001400D03*
X008250Y005200D03*
D21*
X006656Y005300D02*
X006256Y005700D01*
X005950Y005700D01*
X004400Y005550D02*
X004250Y005550D01*
X003815Y005135D01*
X003815Y004750D01*
X003937Y004622D01*
X003937Y004000D01*
D22*
X003630Y003752D02*
X004306Y003752D01*
X004382Y003828D01*
X004382Y004172D01*
X004306Y004248D01*
X004147Y004248D01*
X004147Y004463D01*
X004148Y004461D01*
X004176Y004433D01*
X004210Y004413D01*
X004248Y004403D01*
X004436Y004403D01*
X004436Y004702D01*
X004533Y004702D01*
X004533Y004798D01*
X004806Y004798D01*
X004806Y004769D01*
X005075Y004769D01*
X005075Y004731D01*
X005113Y004731D01*
X005113Y004423D01*
X005252Y004423D01*
X005290Y004433D01*
X005324Y004453D01*
X005352Y004481D01*
X005361Y004496D01*
X005414Y004443D01*
X005420Y004443D01*
X005420Y003625D01*
X005525Y003520D01*
X005618Y003427D01*
X005618Y003328D01*
X005694Y003252D01*
X006432Y003252D01*
X006508Y003328D01*
X006508Y003672D01*
X006437Y003743D01*
X006470Y003762D01*
X006498Y003790D01*
X006518Y003824D01*
X006528Y003862D01*
X006528Y003991D01*
X006072Y003991D01*
X006072Y004009D01*
X006528Y004009D01*
X006528Y004138D01*
X006518Y004176D01*
X006498Y004210D01*
X006470Y004238D01*
X006436Y004258D01*
X006398Y004268D01*
X006072Y004268D01*
X006072Y004009D01*
X006054Y004009D01*
X006054Y004268D01*
X005780Y004268D01*
X005780Y004443D01*
X005798Y004443D01*
X005874Y004519D01*
X005874Y004981D01*
X005798Y005057D01*
X005643Y005057D01*
X005574Y005185D01*
X005574Y005531D01*
X005498Y005607D01*
X005114Y005607D01*
X005050Y005543D01*
X004986Y005607D01*
X004697Y005607D01*
X004648Y005656D01*
X004643Y005670D01*
X004925Y005670D01*
X005151Y005896D01*
X005214Y005870D01*
X005386Y005870D01*
X005544Y005935D01*
X005665Y006056D01*
X005730Y006214D01*
X005730Y006386D01*
X005665Y006544D01*
X005544Y006665D01*
X005386Y006730D01*
X005214Y006730D01*
X005056Y006665D01*
X004935Y006544D01*
X004870Y006386D01*
X004870Y006214D01*
X004896Y006151D01*
X004775Y006030D01*
X004638Y006030D01*
X004665Y006056D01*
X004730Y006214D01*
X004730Y006386D01*
X004665Y006544D01*
X004544Y006665D01*
X004386Y006730D01*
X004214Y006730D01*
X004056Y006665D01*
X003935Y006544D01*
X003870Y006386D01*
X003870Y006214D01*
X003896Y006151D01*
X003175Y005430D01*
X003070Y005325D01*
X003070Y004243D01*
X003004Y004270D01*
X002896Y004270D01*
X002797Y004229D01*
X002721Y004153D01*
X002680Y004054D01*
X002680Y003946D01*
X002692Y003918D01*
X002597Y003879D01*
X002521Y003803D01*
X002480Y003704D01*
X002480Y003670D01*
X002396Y003670D01*
X002297Y003629D01*
X002221Y003553D01*
X002180Y003454D01*
X002180Y003346D01*
X002221Y003247D01*
X002297Y003171D01*
X002320Y003162D01*
X002320Y002675D01*
X002425Y002570D01*
X002520Y002475D01*
X002520Y002125D01*
X002625Y002020D01*
X003220Y001425D01*
X003220Y001025D01*
X003325Y000920D01*
X003425Y000820D01*
X003500Y000820D01*
X003568Y000752D01*
X004306Y000752D01*
X004382Y000828D01*
X004382Y001063D01*
X004625Y000820D01*
X005626Y000820D01*
X005694Y000752D01*
X006432Y000752D01*
X006508Y000828D01*
X006508Y001172D01*
X006432Y001248D01*
X005694Y001248D01*
X005626Y001180D01*
X004775Y001180D01*
X004725Y001230D01*
X004804Y001230D01*
X004903Y001271D01*
X004952Y001320D01*
X004975Y001320D01*
X005080Y001425D01*
X005080Y001425D01*
X005080Y001396D01*
X005121Y001297D01*
X005197Y001221D01*
X005296Y001180D01*
X005404Y001180D01*
X005503Y001221D01*
X005579Y001297D01*
X005588Y001320D01*
X005626Y001320D01*
X005694Y001252D01*
X006432Y001252D01*
X006508Y001328D01*
X006508Y001672D01*
X006432Y001748D01*
X005803Y001748D01*
X005806Y001752D01*
X006432Y001752D01*
X006508Y001828D01*
X006508Y002172D01*
X006432Y002248D01*
X005903Y002248D01*
X005906Y002252D01*
X006432Y002252D01*
X006508Y002328D01*
X006508Y002672D01*
X006432Y002748D01*
X005753Y002748D01*
X005756Y002752D01*
X006432Y002752D01*
X006508Y002828D01*
X006508Y003172D01*
X006432Y003248D01*
X005694Y003248D01*
X005618Y003172D01*
X005618Y003123D01*
X005475Y002980D01*
X005370Y002875D01*
X005370Y002525D01*
X005325Y002480D01*
X004825Y002480D01*
X004765Y002420D01*
X004696Y002420D01*
X004597Y002379D01*
X004561Y002343D01*
X004475Y002430D01*
X004382Y002430D01*
X004382Y002672D01*
X004306Y002748D01*
X003580Y002748D01*
X003580Y002752D01*
X004306Y002752D01*
X004382Y002828D01*
X004382Y003172D01*
X004306Y003248D01*
X003656Y003248D01*
X003653Y003252D01*
X004306Y003252D01*
X004382Y003328D01*
X004382Y003672D01*
X004306Y003748D01*
X003630Y003748D01*
X003630Y003752D01*
X003450Y003650D02*
X003450Y005150D01*
X004150Y005850D01*
X004850Y005850D01*
X005300Y006300D01*
X005606Y006603D02*
X010400Y006603D01*
X010400Y006504D02*
X005681Y006504D01*
X005722Y006406D02*
X010400Y006406D01*
X010400Y006307D02*
X009691Y006307D01*
X009636Y006330D02*
X008864Y006330D01*
X008706Y006265D01*
X008585Y006144D01*
X008520Y005986D01*
X008520Y005814D01*
X008585Y005656D01*
X008706Y005535D01*
X008864Y005470D01*
X009636Y005470D01*
X009794Y005535D01*
X009915Y005656D01*
X009980Y005814D01*
X009980Y005986D01*
X009915Y006144D01*
X009794Y006265D01*
X009636Y006330D01*
X009850Y006209D02*
X010400Y006209D01*
X010400Y006110D02*
X009928Y006110D01*
X009969Y006012D02*
X010400Y006012D01*
X010400Y005913D02*
X009980Y005913D01*
X009980Y005815D02*
X010400Y005815D01*
X010400Y005716D02*
X009939Y005716D01*
X009876Y005618D02*
X010400Y005618D01*
X010400Y005519D02*
X009754Y005519D01*
X009707Y005322D02*
X010400Y005322D01*
X010400Y005421D02*
X007648Y005421D01*
X007690Y005379D02*
X007579Y005490D01*
X007529Y005540D01*
X006782Y005540D01*
X006710Y005570D01*
X006683Y005570D01*
X006343Y005910D01*
X006122Y005910D01*
X006103Y005929D01*
X006004Y005970D01*
X005896Y005970D01*
X005797Y005929D01*
X005721Y005853D01*
X005680Y005754D01*
X005680Y005646D01*
X005721Y005547D01*
X005797Y005471D01*
X005896Y005430D01*
X006004Y005430D01*
X006103Y005471D01*
X006122Y005490D01*
X006169Y005490D01*
X006360Y005299D01*
X006360Y004571D01*
X006471Y004460D01*
X006604Y004327D01*
X006604Y003592D01*
X006610Y003586D01*
X006610Y003114D01*
X006604Y003108D01*
X006604Y002292D01*
X006610Y002286D01*
X006610Y001926D01*
X006580Y001854D01*
X006580Y001746D01*
X006610Y001674D01*
X006610Y001626D01*
X006580Y001554D01*
X006580Y001446D01*
X006610Y001374D01*
X006610Y001326D01*
X006580Y001254D01*
X006580Y001146D01*
X006610Y001074D01*
X006610Y000871D01*
X006721Y000760D01*
X008529Y000760D01*
X008539Y000770D01*
X008585Y000656D01*
X008706Y000535D01*
X008864Y000470D01*
X009636Y000470D01*
X009794Y000535D01*
X009915Y000656D01*
X009980Y000814D01*
X009980Y000986D01*
X009915Y001144D01*
X009913Y001145D01*
X009990Y001221D01*
X009990Y002229D01*
X009879Y002340D01*
X008965Y002340D01*
X008955Y002348D01*
X008888Y002340D01*
X008821Y002340D01*
X008812Y002330D01*
X008798Y002329D01*
X008768Y002290D01*
X008706Y002265D01*
X008585Y002144D01*
X008520Y001986D01*
X008520Y001971D01*
X008457Y001890D01*
X007779Y001890D01*
X007690Y001979D01*
X007690Y002312D01*
X007696Y002288D01*
X007716Y002254D01*
X007744Y002226D01*
X007778Y002206D01*
X007816Y002196D01*
X008101Y002196D01*
X008101Y002650D01*
X008201Y002650D01*
X008201Y002196D01*
X008486Y002196D01*
X008524Y002206D01*
X008558Y002226D01*
X008586Y002254D01*
X008606Y002288D01*
X008616Y002326D01*
X008616Y002626D01*
X008706Y002535D01*
X008864Y002470D01*
X009636Y002470D01*
X009794Y002535D01*
X009915Y002656D01*
X009980Y002814D01*
X009980Y002986D01*
X009915Y003144D01*
X009794Y003265D01*
X009636Y003330D01*
X008864Y003330D01*
X008706Y003265D01*
X008587Y003145D01*
X008586Y003146D01*
X008558Y003174D01*
X008524Y003194D01*
X008486Y003204D01*
X008201Y003204D01*
X008201Y002750D01*
X008101Y002750D01*
X008101Y003204D01*
X007816Y003204D01*
X007778Y003194D01*
X007744Y003174D01*
X007716Y003146D01*
X007696Y003112D01*
X007690Y003088D01*
X007690Y003612D01*
X007696Y003588D01*
X007716Y003554D01*
X007744Y003526D01*
X007778Y003506D01*
X007816Y003496D01*
X008101Y003496D01*
X008101Y003950D01*
X008201Y003950D01*
X008201Y003496D01*
X008486Y003496D01*
X008524Y003506D01*
X008558Y003526D01*
X008586Y003554D01*
X008606Y003588D01*
X008616Y003626D01*
X008706Y003535D01*
X008864Y003470D01*
X009636Y003470D01*
X009794Y003535D01*
X009915Y003656D01*
X009980Y003814D01*
X009980Y003986D01*
X009915Y004144D01*
X009794Y004265D01*
X009636Y004330D01*
X008864Y004330D01*
X008706Y004265D01*
X008616Y004174D01*
X008616Y004374D01*
X008606Y004412D01*
X008586Y004446D01*
X008558Y004474D01*
X008524Y004494D01*
X008486Y004504D01*
X008201Y004504D01*
X008201Y004050D01*
X008101Y004050D01*
X008101Y004504D01*
X007816Y004504D01*
X007778Y004494D01*
X007744Y004474D01*
X007716Y004446D01*
X007696Y004412D01*
X007690Y004388D01*
X007690Y005379D01*
X007690Y005322D02*
X008793Y005322D01*
X008777Y005317D02*
X008714Y005285D01*
X008657Y005243D01*
X008607Y005193D01*
X008565Y005136D01*
X008533Y005073D01*
X008511Y005005D01*
X008502Y004950D01*
X009200Y004950D01*
X009200Y005350D01*
X008915Y005350D01*
X008845Y005339D01*
X008777Y005317D01*
X008637Y005224D02*
X007690Y005224D01*
X007690Y005125D02*
X008560Y005125D01*
X008518Y005027D02*
X007690Y005027D01*
X007690Y004928D02*
X009200Y004928D01*
X009200Y004950D02*
X009200Y004850D01*
X009300Y004850D01*
X009300Y004950D01*
X009200Y004950D01*
X009300Y004950D02*
X009300Y005350D01*
X009585Y005350D01*
X009655Y005339D01*
X009723Y005317D01*
X009786Y005285D01*
X009843Y005243D01*
X009893Y005193D01*
X009935Y005136D01*
X009967Y005073D01*
X009989Y005005D01*
X009998Y004950D01*
X009300Y004950D01*
X009300Y004928D02*
X010400Y004928D01*
X010400Y004830D02*
X009994Y004830D01*
X009998Y004850D02*
X009300Y004850D01*
X009300Y004450D01*
X009585Y004450D01*
X009655Y004461D01*
X009723Y004483D01*
X009786Y004515D01*
X009843Y004557D01*
X009893Y004607D01*
X009935Y004664D01*
X009967Y004727D01*
X009989Y004795D01*
X009998Y004850D01*
X009968Y004731D02*
X010400Y004731D01*
X010400Y004633D02*
X009912Y004633D01*
X009812Y004534D02*
X010400Y004534D01*
X010400Y004436D02*
X008592Y004436D01*
X008616Y004337D02*
X010400Y004337D01*
X010400Y004239D02*
X009820Y004239D01*
X009916Y004140D02*
X010400Y004140D01*
X010400Y004042D02*
X009957Y004042D01*
X009980Y003943D02*
X010400Y003943D01*
X010400Y003845D02*
X009980Y003845D01*
X009952Y003746D02*
X010400Y003746D01*
X010400Y003648D02*
X009906Y003648D01*
X009807Y003549D02*
X010400Y003549D01*
X010400Y003451D02*
X007690Y003451D01*
X007690Y003549D02*
X007721Y003549D01*
X007690Y003352D02*
X010400Y003352D01*
X010400Y003254D02*
X009805Y003254D01*
X009903Y003155D02*
X010400Y003155D01*
X010400Y003057D02*
X009951Y003057D01*
X009980Y002958D02*
X010400Y002958D01*
X010400Y002860D02*
X009980Y002860D01*
X009958Y002761D02*
X010400Y002761D01*
X010400Y002663D02*
X009917Y002663D01*
X009822Y002564D02*
X010400Y002564D01*
X010400Y002466D02*
X008616Y002466D01*
X008616Y002564D02*
X008678Y002564D01*
X008616Y002367D02*
X010400Y002367D01*
X010400Y002269D02*
X009950Y002269D01*
X009990Y002170D02*
X010400Y002170D01*
X010400Y002072D02*
X009990Y002072D01*
X009990Y001973D02*
X010400Y001973D01*
X010400Y001875D02*
X009990Y001875D01*
X009990Y001776D02*
X010400Y001776D01*
X010400Y001678D02*
X009990Y001678D01*
X009990Y001579D02*
X010400Y001579D01*
X010400Y001481D02*
X009990Y001481D01*
X009990Y001382D02*
X010400Y001382D01*
X010400Y001284D02*
X009990Y001284D01*
X009954Y001185D02*
X010400Y001185D01*
X010400Y001087D02*
X009938Y001087D01*
X009979Y000988D02*
X010400Y000988D01*
X010400Y000890D02*
X009980Y000890D01*
X009970Y000791D02*
X010400Y000791D01*
X010400Y000693D02*
X009929Y000693D01*
X009852Y000594D02*
X010400Y000594D01*
X010400Y000496D02*
X009697Y000496D01*
X010400Y000397D02*
X000300Y000397D01*
X000300Y000350D02*
X010400Y000350D01*
X010400Y006850D01*
X000300Y006850D01*
X000300Y000350D01*
X000300Y000496D02*
X008803Y000496D01*
X008648Y000594D02*
X000300Y000594D01*
X000300Y000693D02*
X008571Y000693D01*
X008520Y001973D02*
X007696Y001973D01*
X007690Y002072D02*
X008556Y002072D01*
X008612Y002170D02*
X007690Y002170D01*
X007690Y002269D02*
X007708Y002269D01*
X008101Y002269D02*
X008201Y002269D01*
X008201Y002367D02*
X008101Y002367D01*
X008101Y002466D02*
X008201Y002466D01*
X008201Y002564D02*
X008101Y002564D01*
X008101Y002761D02*
X008201Y002761D01*
X008201Y002860D02*
X008101Y002860D01*
X008101Y002958D02*
X008201Y002958D01*
X008201Y003057D02*
X008101Y003057D01*
X008101Y003155D02*
X008201Y003155D01*
X008578Y003155D02*
X008597Y003155D01*
X008695Y003254D02*
X007690Y003254D01*
X007690Y003155D02*
X007725Y003155D01*
X008101Y003549D02*
X008201Y003549D01*
X008201Y003648D02*
X008101Y003648D01*
X008101Y003746D02*
X008201Y003746D01*
X008201Y003845D02*
X008101Y003845D01*
X008101Y003943D02*
X008201Y003943D01*
X008201Y004140D02*
X008101Y004140D01*
X008101Y004239D02*
X008201Y004239D01*
X008201Y004337D02*
X008101Y004337D01*
X008101Y004436D02*
X008201Y004436D01*
X008565Y004664D02*
X008533Y004727D01*
X008511Y004795D01*
X008502Y004850D01*
X009200Y004850D01*
X009200Y004450D01*
X008915Y004450D01*
X008845Y004461D01*
X008777Y004483D01*
X008714Y004515D01*
X008657Y004557D01*
X008607Y004607D01*
X008565Y004664D01*
X008588Y004633D02*
X007690Y004633D01*
X007690Y004731D02*
X008532Y004731D01*
X008506Y004830D02*
X007690Y004830D01*
X007690Y004534D02*
X008688Y004534D01*
X008680Y004239D02*
X008616Y004239D01*
X009200Y004534D02*
X009300Y004534D01*
X009300Y004633D02*
X009200Y004633D01*
X009200Y004731D02*
X009300Y004731D01*
X009300Y004830D02*
X009200Y004830D01*
X009200Y005027D02*
X009300Y005027D01*
X009300Y005125D02*
X009200Y005125D01*
X009200Y005224D02*
X009300Y005224D01*
X009300Y005322D02*
X009200Y005322D01*
X008746Y005519D02*
X007550Y005519D01*
X006636Y005618D02*
X008624Y005618D01*
X008561Y005716D02*
X006537Y005716D01*
X006439Y005815D02*
X008520Y005815D01*
X008520Y005913D02*
X006119Y005913D01*
X005781Y005913D02*
X005489Y005913D01*
X005620Y006012D02*
X008531Y006012D01*
X008572Y006110D02*
X005687Y006110D01*
X005728Y006209D02*
X008650Y006209D01*
X008809Y006307D02*
X005730Y006307D01*
X005456Y006701D02*
X010400Y006701D01*
X010400Y006800D02*
X000300Y006800D01*
X000300Y006701D02*
X001917Y006701D01*
X001946Y006730D02*
X001870Y006654D01*
X001870Y005946D01*
X001946Y005870D01*
X002654Y005870D01*
X002730Y005946D01*
X002730Y006654D01*
X002654Y006730D01*
X001946Y006730D01*
X001870Y006603D02*
X000300Y006603D01*
X000300Y006504D02*
X001870Y006504D01*
X001870Y006406D02*
X000300Y006406D01*
X000300Y006307D02*
X001870Y006307D01*
X001870Y006209D02*
X000300Y006209D01*
X000300Y006110D02*
X001870Y006110D01*
X001870Y006012D02*
X000300Y006012D01*
X000300Y005913D02*
X001903Y005913D01*
X001885Y005350D02*
X001600Y005350D01*
X001600Y004950D01*
X001500Y004950D01*
X001500Y005350D01*
X001215Y005350D01*
X001145Y005339D01*
X001077Y005317D01*
X001014Y005285D01*
X000957Y005243D01*
X000907Y005193D01*
X000865Y005136D01*
X000833Y005073D01*
X000811Y005005D01*
X000802Y004950D01*
X001500Y004950D01*
X001500Y004850D01*
X001600Y004850D01*
X001600Y004950D01*
X002298Y004950D01*
X002289Y005005D01*
X002267Y005073D01*
X002235Y005136D01*
X002193Y005193D01*
X002143Y005243D01*
X002086Y005285D01*
X002023Y005317D01*
X001955Y005339D01*
X001885Y005350D01*
X002007Y005322D02*
X003070Y005322D01*
X003166Y005421D02*
X000300Y005421D01*
X000300Y005519D02*
X003264Y005519D01*
X003363Y005618D02*
X000300Y005618D01*
X000300Y005716D02*
X003461Y005716D01*
X003560Y005815D02*
X000300Y005815D01*
X000300Y005322D02*
X001093Y005322D01*
X000937Y005224D02*
X000300Y005224D01*
X000300Y005125D02*
X000860Y005125D01*
X000818Y005027D02*
X000300Y005027D01*
X000300Y004928D02*
X001500Y004928D01*
X001500Y004850D02*
X000802Y004850D01*
X000811Y004795D01*
X000833Y004727D01*
X000865Y004664D01*
X000907Y004607D01*
X000957Y004557D01*
X001014Y004515D01*
X001077Y004483D01*
X001145Y004461D01*
X001215Y004450D01*
X001500Y004450D01*
X001500Y004850D01*
X001500Y004830D02*
X001600Y004830D01*
X001600Y004850D02*
X001600Y004450D01*
X001885Y004450D01*
X001955Y004461D01*
X002023Y004483D01*
X002086Y004515D01*
X002143Y004557D01*
X002193Y004607D01*
X002235Y004664D01*
X002267Y004727D01*
X002289Y004795D01*
X002298Y004850D01*
X001600Y004850D01*
X001600Y004928D02*
X003070Y004928D01*
X003070Y004830D02*
X002294Y004830D01*
X002268Y004731D02*
X003070Y004731D01*
X003070Y004633D02*
X002212Y004633D01*
X002112Y004534D02*
X003070Y004534D01*
X003070Y004436D02*
X000300Y004436D01*
X000300Y004337D02*
X003070Y004337D01*
X002820Y004239D02*
X002120Y004239D01*
X002094Y004265D02*
X001936Y004330D01*
X001164Y004330D01*
X001006Y004265D01*
X000885Y004144D01*
X000820Y003986D01*
X000820Y003814D01*
X000885Y003656D01*
X001006Y003535D01*
X001164Y003470D01*
X001936Y003470D01*
X002094Y003535D01*
X002215Y003656D01*
X002280Y003814D01*
X002280Y003986D01*
X002215Y004144D01*
X002094Y004265D01*
X002216Y004140D02*
X002716Y004140D01*
X002680Y004042D02*
X002257Y004042D01*
X002280Y003943D02*
X002681Y003943D01*
X002563Y003845D02*
X002280Y003845D01*
X002252Y003746D02*
X002498Y003746D01*
X002342Y003648D02*
X002206Y003648D01*
X002219Y003549D02*
X002107Y003549D01*
X002180Y003451D02*
X000300Y003451D01*
X000300Y003549D02*
X000993Y003549D01*
X000894Y003648D02*
X000300Y003648D01*
X000300Y003746D02*
X000848Y003746D01*
X000820Y003845D02*
X000300Y003845D01*
X000300Y003943D02*
X000820Y003943D01*
X000843Y004042D02*
X000300Y004042D01*
X000300Y004140D02*
X000884Y004140D01*
X000980Y004239D02*
X000300Y004239D01*
X000300Y004534D02*
X000988Y004534D01*
X000888Y004633D02*
X000300Y004633D01*
X000300Y004731D02*
X000832Y004731D01*
X000806Y004830D02*
X000300Y004830D01*
X001500Y004731D02*
X001600Y004731D01*
X001600Y004633D02*
X001500Y004633D01*
X001500Y004534D02*
X001600Y004534D01*
X001600Y005027D02*
X001500Y005027D01*
X001500Y005125D02*
X001600Y005125D01*
X001600Y005224D02*
X001500Y005224D01*
X001500Y005322D02*
X001600Y005322D01*
X002163Y005224D02*
X003070Y005224D01*
X003070Y005125D02*
X002240Y005125D01*
X002282Y005027D02*
X003070Y005027D01*
X003250Y005250D02*
X003250Y003550D01*
X003450Y003350D01*
X003450Y003200D01*
X003650Y003000D01*
X003937Y003000D01*
X004382Y002958D02*
X005453Y002958D01*
X005552Y003057D02*
X004382Y003057D01*
X004382Y003155D02*
X005618Y003155D01*
X005693Y003254D02*
X004307Y003254D01*
X004382Y003352D02*
X005618Y003352D01*
X005595Y003451D02*
X004382Y003451D01*
X004382Y003549D02*
X005496Y003549D01*
X005420Y003648D02*
X004382Y003648D01*
X004308Y003746D02*
X005420Y003746D01*
X005420Y003845D02*
X004382Y003845D01*
X004382Y003943D02*
X005420Y003943D01*
X005420Y004042D02*
X004382Y004042D01*
X004382Y004140D02*
X005420Y004140D01*
X005420Y004239D02*
X004315Y004239D01*
X004147Y004337D02*
X005420Y004337D01*
X005420Y004436D02*
X005294Y004436D01*
X005113Y004436D02*
X005075Y004436D01*
X005075Y004423D02*
X005075Y004731D01*
X004806Y004731D01*
X004533Y004731D01*
X004533Y004702D02*
X004806Y004702D01*
X004806Y004731D01*
X004533Y004702D02*
X004533Y004403D01*
X004721Y004403D01*
X004759Y004413D01*
X004793Y004433D01*
X004821Y004461D01*
X004834Y004484D01*
X004836Y004481D01*
X004864Y004453D01*
X004898Y004433D01*
X004937Y004423D01*
X005075Y004423D01*
X005075Y004534D02*
X005113Y004534D01*
X005113Y004633D02*
X005075Y004633D01*
X005075Y004731D02*
X005113Y004731D01*
X004894Y004436D02*
X004796Y004436D01*
X004533Y004436D02*
X004436Y004436D01*
X004436Y004534D02*
X004533Y004534D01*
X004533Y004633D02*
X004436Y004633D01*
X004436Y004798D02*
X004436Y005097D01*
X004248Y005097D01*
X004210Y005087D01*
X004176Y005067D01*
X004148Y005039D01*
X004139Y005023D01*
X004086Y005077D01*
X004059Y005077D01*
X004294Y005302D01*
X004346Y005280D01*
X004454Y005280D01*
X004497Y005298D01*
X004526Y005269D01*
X004526Y005069D01*
X004533Y005062D01*
X004533Y004798D01*
X004436Y004798D01*
X004436Y004830D02*
X004533Y004830D01*
X004533Y004928D02*
X004436Y004928D01*
X004436Y005027D02*
X004533Y005027D01*
X004526Y005125D02*
X004109Y005125D01*
X004136Y005027D02*
X004141Y005027D01*
X004212Y005224D02*
X004526Y005224D01*
X004800Y005250D02*
X004550Y005500D01*
X004500Y005500D01*
X004400Y005550D01*
X004687Y005618D02*
X005692Y005618D01*
X005680Y005716D02*
X004971Y005716D01*
X005069Y005815D02*
X005705Y005815D01*
X005749Y005519D02*
X005574Y005519D01*
X005574Y005421D02*
X006239Y005421D01*
X006337Y005322D02*
X005574Y005322D01*
X005574Y005224D02*
X006360Y005224D01*
X006360Y005125D02*
X005606Y005125D01*
X005828Y005027D02*
X006360Y005027D01*
X006360Y004928D02*
X005874Y004928D01*
X005874Y004830D02*
X006360Y004830D01*
X006360Y004731D02*
X005874Y004731D01*
X005874Y004633D02*
X006360Y004633D01*
X006397Y004534D02*
X005874Y004534D01*
X005780Y004436D02*
X006496Y004436D01*
X006594Y004337D02*
X005780Y004337D01*
X006054Y004239D02*
X006072Y004239D01*
X006072Y004140D02*
X006054Y004140D01*
X006054Y004042D02*
X006072Y004042D01*
X006469Y004239D02*
X006604Y004239D01*
X006604Y004140D02*
X006527Y004140D01*
X006528Y004042D02*
X006604Y004042D01*
X006604Y003943D02*
X006528Y003943D01*
X006523Y003845D02*
X006604Y003845D01*
X006604Y003746D02*
X006443Y003746D01*
X006508Y003648D02*
X006604Y003648D01*
X006610Y003549D02*
X006508Y003549D01*
X006508Y003451D02*
X006610Y003451D01*
X006610Y003352D02*
X006508Y003352D01*
X006433Y003254D02*
X006610Y003254D01*
X006610Y003155D02*
X006508Y003155D01*
X006508Y003057D02*
X006604Y003057D01*
X006604Y002958D02*
X006508Y002958D01*
X006508Y002860D02*
X006604Y002860D01*
X006604Y002761D02*
X006441Y002761D01*
X006508Y002663D02*
X006604Y002663D01*
X006604Y002564D02*
X006508Y002564D01*
X006508Y002466D02*
X006604Y002466D01*
X006604Y002367D02*
X006508Y002367D01*
X006448Y002269D02*
X006610Y002269D01*
X006610Y002170D02*
X006508Y002170D01*
X006508Y002072D02*
X006610Y002072D01*
X006610Y001973D02*
X006508Y001973D01*
X006508Y001875D02*
X006589Y001875D01*
X006580Y001776D02*
X006456Y001776D01*
X006502Y001678D02*
X006608Y001678D01*
X006590Y001579D02*
X006508Y001579D01*
X006508Y001481D02*
X006580Y001481D01*
X006607Y001382D02*
X006508Y001382D01*
X006463Y001284D02*
X006592Y001284D01*
X006580Y001185D02*
X006495Y001185D01*
X006508Y001087D02*
X006605Y001087D01*
X006610Y000988D02*
X006508Y000988D01*
X006508Y000890D02*
X006610Y000890D01*
X006690Y000791D02*
X006471Y000791D01*
X006063Y001000D02*
X004700Y001000D01*
X004450Y001250D01*
X004450Y002200D01*
X004400Y002250D01*
X003550Y002250D01*
X003400Y002400D01*
X003400Y002850D01*
X003200Y003050D01*
X003050Y003300D02*
X002900Y003150D01*
X002900Y002950D01*
X003100Y002750D01*
X003100Y002400D01*
X003500Y002000D01*
X003937Y002000D01*
X004538Y002367D02*
X004585Y002367D01*
X004382Y002466D02*
X004811Y002466D01*
X004900Y002300D02*
X004750Y002150D01*
X004900Y002300D02*
X005400Y002300D01*
X005550Y002450D01*
X005550Y002800D01*
X005750Y003000D01*
X006063Y003000D01*
X005370Y002860D02*
X004382Y002860D01*
X004315Y002761D02*
X005370Y002761D01*
X005370Y002663D02*
X004382Y002663D01*
X004382Y002564D02*
X005370Y002564D01*
X005500Y002100D02*
X005900Y002500D01*
X006063Y002500D01*
X005500Y002100D02*
X005200Y002100D01*
X005100Y002000D01*
X005400Y001900D02*
X005200Y001700D01*
X005100Y001700D01*
X004900Y001500D01*
X004750Y001500D01*
X004915Y001284D02*
X005135Y001284D01*
X005086Y001382D02*
X005037Y001382D01*
X005284Y001185D02*
X004770Y001185D01*
X004457Y000988D02*
X004382Y000988D01*
X004382Y000890D02*
X004556Y000890D01*
X004345Y000791D02*
X005655Y000791D01*
X005631Y001185D02*
X005416Y001185D01*
X005565Y001284D02*
X005663Y001284D01*
X005400Y001500D02*
X005350Y001450D01*
X005400Y001500D02*
X006063Y001500D01*
X005700Y001900D02*
X005400Y001900D01*
X005700Y001900D02*
X005800Y002000D01*
X006063Y002000D01*
X003937Y001500D02*
X003700Y001500D01*
X002900Y002300D01*
X002900Y002650D01*
X002700Y002850D01*
X002700Y003250D01*
X002850Y003400D01*
X002850Y003550D01*
X002750Y003650D01*
X002500Y003350D02*
X002450Y003400D01*
X002500Y003350D02*
X002500Y002750D01*
X002700Y002550D01*
X002700Y002200D01*
X003400Y001500D01*
X003400Y001100D01*
X003500Y001000D01*
X003937Y001000D01*
X003529Y000791D02*
X000300Y000791D01*
X000300Y000890D02*
X003356Y000890D01*
X003257Y000988D02*
X000300Y000988D01*
X000300Y001087D02*
X003220Y001087D01*
X003220Y001185D02*
X000300Y001185D01*
X000300Y001284D02*
X003220Y001284D01*
X003220Y001382D02*
X000300Y001382D01*
X000300Y001481D02*
X001139Y001481D01*
X001164Y001470D02*
X001936Y001470D01*
X002094Y001535D01*
X002215Y001656D01*
X002280Y001814D01*
X002280Y001986D01*
X002215Y002144D01*
X002094Y002265D01*
X001936Y002330D01*
X001164Y002330D01*
X001006Y002265D01*
X000885Y002144D01*
X000820Y001986D01*
X000820Y001814D01*
X000885Y001656D01*
X001006Y001535D01*
X001164Y001470D01*
X000963Y001579D02*
X000300Y001579D01*
X000300Y001678D02*
X000877Y001678D01*
X000836Y001776D02*
X000300Y001776D01*
X000300Y001875D02*
X000820Y001875D01*
X000820Y001973D02*
X000300Y001973D01*
X000300Y002072D02*
X000856Y002072D01*
X000912Y002170D02*
X000300Y002170D01*
X000300Y002269D02*
X001016Y002269D01*
X001164Y002470D02*
X001936Y002470D01*
X002094Y002535D01*
X002215Y002656D01*
X002280Y002814D01*
X002280Y002986D01*
X002215Y003144D01*
X002094Y003265D01*
X001936Y003330D01*
X001164Y003330D01*
X001006Y003265D01*
X000885Y003144D01*
X000820Y002986D01*
X000820Y002814D01*
X000885Y002656D01*
X001006Y002535D01*
X001164Y002470D01*
X000978Y002564D02*
X000300Y002564D01*
X000300Y002466D02*
X002520Y002466D01*
X002431Y002564D02*
X002122Y002564D01*
X002217Y002663D02*
X002333Y002663D01*
X002320Y002761D02*
X002258Y002761D01*
X002280Y002860D02*
X002320Y002860D01*
X002320Y002958D02*
X002280Y002958D01*
X002251Y003057D02*
X002320Y003057D01*
X002320Y003155D02*
X002203Y003155D01*
X002218Y003254D02*
X002105Y003254D01*
X002180Y003352D02*
X000300Y003352D01*
X000300Y003254D02*
X000995Y003254D01*
X000897Y003155D02*
X000300Y003155D01*
X000300Y003057D02*
X000849Y003057D01*
X000820Y002958D02*
X000300Y002958D01*
X000300Y002860D02*
X000820Y002860D01*
X000842Y002761D02*
X000300Y002761D01*
X000300Y002663D02*
X000883Y002663D01*
X000300Y002367D02*
X002520Y002367D01*
X002520Y002269D02*
X002084Y002269D01*
X002188Y002170D02*
X002520Y002170D01*
X002574Y002072D02*
X002244Y002072D01*
X002280Y001973D02*
X002672Y001973D01*
X002771Y001875D02*
X002280Y001875D01*
X002264Y001776D02*
X002869Y001776D01*
X002968Y001678D02*
X002223Y001678D01*
X002137Y001579D02*
X003066Y001579D01*
X003165Y001481D02*
X001961Y001481D01*
X003050Y003300D02*
X003050Y003900D01*
X002950Y004000D01*
X003450Y003650D02*
X003600Y003500D01*
X003937Y003500D01*
X004147Y004436D02*
X004174Y004436D01*
X004800Y005250D02*
X004794Y005300D01*
X005306Y005300D02*
X005606Y004750D01*
X005606Y004756D01*
X005600Y004700D01*
X005600Y003700D01*
X005800Y003500D01*
X006063Y003500D01*
X007690Y004436D02*
X007710Y004436D01*
X008582Y003549D02*
X008693Y003549D01*
X008716Y002269D02*
X008595Y002269D01*
X009982Y005027D02*
X010400Y005027D01*
X010400Y005125D02*
X009940Y005125D01*
X009863Y005224D02*
X010400Y005224D01*
X005144Y006701D02*
X004456Y006701D01*
X004606Y006603D02*
X004994Y006603D01*
X004919Y006504D02*
X004681Y006504D01*
X004722Y006406D02*
X004878Y006406D01*
X004870Y006307D02*
X004730Y006307D01*
X004728Y006209D02*
X004872Y006209D01*
X004855Y006110D02*
X004687Y006110D01*
X004300Y006300D02*
X003250Y005250D01*
X003250Y005852D02*
X003195Y005861D01*
X003127Y005883D01*
X003064Y005915D01*
X003007Y005957D01*
X002957Y006007D01*
X002915Y006064D01*
X002883Y006127D01*
X002861Y006195D01*
X002852Y006250D01*
X003250Y006250D01*
X003350Y006250D01*
X003350Y006350D01*
X003748Y006350D01*
X003739Y006405D01*
X003717Y006473D01*
X003685Y006536D01*
X003643Y006593D01*
X003593Y006643D01*
X003536Y006685D01*
X003473Y006717D01*
X003405Y006739D01*
X003350Y006748D01*
X003350Y006350D01*
X003250Y006350D01*
X003250Y006748D01*
X003195Y006739D01*
X003127Y006717D01*
X003064Y006685D01*
X003007Y006643D01*
X002957Y006593D01*
X002915Y006536D01*
X002883Y006473D01*
X002861Y006405D01*
X002852Y006350D01*
X003250Y006350D01*
X003250Y006250D01*
X003250Y005852D01*
X003250Y005913D02*
X003350Y005913D01*
X003350Y005852D02*
X003405Y005861D01*
X003473Y005883D01*
X003536Y005915D01*
X003593Y005957D01*
X003643Y006007D01*
X003685Y006064D01*
X003717Y006127D01*
X003739Y006195D01*
X003748Y006250D01*
X003350Y006250D01*
X003350Y005852D01*
X003350Y006012D02*
X003250Y006012D01*
X003250Y006110D02*
X003350Y006110D01*
X003350Y006209D02*
X003250Y006209D01*
X003250Y006307D02*
X002730Y006307D01*
X002730Y006209D02*
X002859Y006209D01*
X002892Y006110D02*
X002730Y006110D01*
X002730Y006012D02*
X002953Y006012D01*
X003068Y005913D02*
X002697Y005913D01*
X003350Y006307D02*
X003870Y006307D01*
X003872Y006209D02*
X003741Y006209D01*
X003708Y006110D02*
X003855Y006110D01*
X003757Y006012D02*
X003647Y006012D01*
X003658Y005913D02*
X003532Y005913D01*
X003350Y006406D02*
X003250Y006406D01*
X003250Y006504D02*
X003350Y006504D01*
X003350Y006603D02*
X003250Y006603D01*
X003250Y006701D02*
X003350Y006701D01*
X003504Y006701D02*
X004144Y006701D01*
X003994Y006603D02*
X003634Y006603D01*
X003701Y006504D02*
X003919Y006504D01*
X003878Y006406D02*
X003739Y006406D01*
X003096Y006701D02*
X002683Y006701D01*
X002730Y006603D02*
X002966Y006603D01*
X002899Y006504D02*
X002730Y006504D01*
X002730Y006406D02*
X002861Y006406D01*
D23*
X005000Y003400D03*
M02*
