G75*
%MOIN*%
%OFA0B0*%
%FSLAX24Y24*%
%IPPOS*%
%LPD*%
%AMOC8*
5,1,8,0,0,1.08239X$1,22.5*
%
%ADD10C,0.0000*%
%ADD11R,0.0709X0.0197*%
%ADD12R,0.1221X0.1221*%
%ADD13C,0.0640*%
%ADD14R,0.0473X0.0434*%
%ADD15R,0.0552X0.0631*%
%ADD16R,0.0394X0.0316*%
%ADD17R,0.0316X0.0394*%
%ADD18R,0.0355X0.0355*%
%ADD19R,0.0434X0.0473*%
%ADD20R,0.0512X0.0257*%
%ADD21R,0.0640X0.0640*%
%ADD22C,0.0640*%
%ADD23C,0.0400*%
%ADD24C,0.1000*%
D10*
X000150Y000200D02*
X010550Y000200D01*
X010550Y007000D01*
X000150Y007000D01*
X000150Y000200D01*
D11*
X003799Y002504D03*
X003799Y002760D03*
X003799Y003016D03*
X003799Y003272D03*
X003799Y003528D03*
X003799Y003784D03*
X003799Y004040D03*
X003799Y004296D03*
X006201Y004296D03*
X006201Y004040D03*
X006201Y003784D03*
X006201Y003528D03*
X006201Y003272D03*
X006201Y003016D03*
X006201Y002760D03*
X006201Y002504D03*
D12*
X005000Y003400D03*
D13*
X001850Y002900D02*
X001250Y002900D01*
X001250Y001900D02*
X001850Y001900D01*
X001850Y003900D02*
X001250Y003900D01*
X001250Y004900D02*
X001850Y004900D01*
X008950Y004900D02*
X009550Y004900D01*
X009550Y003900D02*
X008950Y003900D01*
X008950Y002900D02*
X009550Y002900D01*
X009550Y001900D02*
X008950Y001900D01*
X008950Y000900D02*
X009550Y000900D01*
X009550Y005900D02*
X008950Y005900D01*
D14*
X006285Y001900D03*
X005615Y001900D03*
D15*
X007270Y002680D03*
X008019Y002680D03*
X008028Y004043D03*
X007280Y004043D03*
D16*
X003050Y002606D03*
X003050Y002094D03*
X002550Y004094D03*
X002550Y004606D03*
D17*
X003694Y001250D03*
X004206Y001250D03*
X004694Y001050D03*
X005206Y001050D03*
D18*
X003145Y001200D03*
X002555Y001200D03*
X001745Y001200D03*
X001155Y001200D03*
D19*
X003200Y004865D03*
X003200Y005535D03*
X005550Y005635D03*
X005550Y004965D03*
D20*
X004912Y004826D03*
X004912Y005200D03*
X004912Y005574D03*
X003888Y005574D03*
X003888Y004826D03*
D21*
X002300Y006300D03*
D22*
X003300Y006300D03*
X004300Y006300D03*
X005300Y006300D03*
D23*
X008250Y005200D03*
X008250Y001400D03*
D24*
X005000Y003400D03*
M02*
