G75*
%MOIN*%
%OFA0B0*%
%FSLAX24Y24*%
%IPPOS*%
%LPD*%
%AMOC8*
5,1,8,0,0,1.08239X$1,22.5*
%
%ADD10C,0.0000*%
%ADD11R,0.0800X0.1000*%
%ADD12R,0.0670X0.0276*%
%ADD13C,0.0640*%
%ADD14R,0.0670X0.0749*%
%ADD15R,0.0473X0.0434*%
%ADD16R,0.0316X0.0394*%
%ADD17R,0.0640X0.0640*%
%ADD18C,0.0640*%
%ADD19C,0.0400*%
%ADD20C,0.1000*%
D10*
X000150Y000200D02*
X010550Y000200D01*
X010550Y007000D01*
X000150Y007000D01*
X000150Y000200D01*
D11*
X005000Y003400D03*
D12*
X003937Y003500D03*
X003937Y003000D03*
X003937Y002500D03*
X003937Y002000D03*
X003937Y001500D03*
X003937Y001000D03*
X006063Y001000D03*
X006063Y001500D03*
X006063Y002000D03*
X006063Y002500D03*
X006063Y003000D03*
X006063Y003500D03*
X006063Y004000D03*
X003937Y004000D03*
D13*
X001850Y003900D02*
X001250Y003900D01*
X001250Y002900D02*
X001850Y002900D01*
X001850Y001900D02*
X001250Y001900D01*
X001250Y004900D02*
X001850Y004900D01*
X008950Y004900D02*
X009550Y004900D01*
X009550Y003900D02*
X008950Y003900D01*
X008950Y002900D02*
X009550Y002900D01*
X009550Y001900D02*
X008950Y001900D01*
X008950Y000900D02*
X009550Y000900D01*
X009550Y005900D02*
X008950Y005900D01*
D14*
X008151Y004000D03*
X007049Y004000D03*
X007049Y002700D03*
X008151Y002700D03*
D15*
X004485Y004750D03*
X003815Y004750D03*
D16*
X004794Y005300D03*
X005306Y005300D03*
X005094Y004750D03*
X005606Y004750D03*
D17*
X002300Y006300D03*
D18*
X003300Y006300D03*
X004300Y006300D03*
X005300Y006300D03*
D19*
X008250Y005200D03*
X008250Y001400D03*
D20*
X005000Y003400D03*
M02*
