%
M48
M72
T01C0.0160
T02C0.0240
T03C0.0400
T04C0.0640
%
T01
X700Y1200
X2150Y1200
X2350Y2350
X3200Y3050
X2450Y3400
X2750Y3650
X2950Y4000
X2750Y5000
X4400Y5150
X4400Y5550
X5950Y5700
X5992Y5291
X5992Y4991
X6656Y5000
X6656Y4700
X6656Y5300
X7492Y6091
X7850Y4600
X8150Y4600
X8450Y4600
X5250Y4150
X4700Y4150
X4700Y2650
X5250Y2650
X4750Y2150
X5100Y2000
X5350Y1450
X4750Y1500
X5550Y700
X6550Y700
X6850Y1200
X6850Y1500
X6850Y1800
X7850Y2100
X8150Y2100
X8450Y2100
X7500Y700
X850Y6250
T02
X8250Y1400
X8250Y5200
T03
X9250Y900
X9250Y1900
X9250Y2900
X9250Y3900
X9250Y4900
X9250Y5900
X5300Y6300
X4300Y6300
X3300Y6300
X2300Y6300
X1550Y4900
X1550Y3900
X1550Y2900
X1550Y1900
T04
X5000Y3400
M30
